#!OML:ASF I:\Actors\actors\Patient Classification 1\Patient 1\Session 1\Subject1.ASF
:FULLY-SPECIFIED
:DEGREES
1137
root 0.758923 16.9398 8.61876 54.0385 54.5065 -12.9101
lowerback 39.2369 2.15578 -2.12682
upperback 3.97961 1.27915 -4.19665
thorax -14.8241 0.655846 -4.11304
lowerneck -6.5785 0.546128 -0.480537
upperneck -3.93083 0.868066 2.40216
head -0.13492 0.482749 0.826803
rclavicle 6.44062e-014 1.46107e-014
rhumerus -40.7614 14.0977 -91.5475
rradius 145.239
rwrist -57.2981
rhand 43.9884 -65.5563
rfingers 7.12502
rthumb 65.6073 -71.6887
lclavicle 6.44062e-014 1.46107e-014
lhumerus -40.6586 -9.22142 89.7231
lradius 147.471
lwrist 51.7158
lhand 71.1552 -16.4801
lfingers 7.12502
lthumb 73.1526 -88.0744
rfemur -53.9999 26.4858 5.34909
rtibia -4.2559
rfoot -76.4145 -55.165
rtoes 49.4757
lfemur -71.134 16.5708 -23.5483
ltibia -4.21541
lfoot 32.3034 -42.7807
ltoes 30.5585
1138
root 0.755208 16.9375 8.62662 54.682 54.5833 -12.6319
lowerback 39.0046 2.53 -2.54752
upperback 4.19027 1.63481 -3.91589
thorax -14.4762 0.839618 -3.72319
lowerneck -5.65744 0.350503 -1.05046
upperneck -3.73975 0.623521 2.62132
head -0.223744 0.355981 0.983574
rclavicle 2.60408e-014 6.18717e-015
rhumerus -38.7324 13.2919 -95.0225
rradius 144.77
rwrist -58.0104
rhand 41.9541 -66.9772
rfingers 7.12502
rthumb 63.9939 -75.7449
lclavicle 2.60408e-014 6.18717e-015
lhumerus -37.4123 -11.8455 93.7614
lradius 146.222
lwrist 53.4134
lhand 70.2269 -14.4915
lfingers 7.12502
lthumb 73.5478 -83.2767
rfemur -54.5067 26.0974 5.18335
rtibia -4.08888
rfoot -76.1662 -55.2354
rtoes 49.4863
lfemur -71.6952 16.3949 -23.721
ltibia -4.0399
lfoot 32.2563 -42.8625
ltoes 30.4714
1139
root 0.746947 16.9298 8.61858 54.9867 54.8123 -12.7218
lowerback 38.8553 2.89431 -2.54466
upperback 4.40263 2.14032 -3.64563
thorax -14.1539 1.06178 -3.63685
lowerneck -4.50057 -0.0558023 -0.773718
upperneck -3.70546 0.0358323 2.20677
head -0.39085 0.0420635 0.798753
rclavicle 1.05356e-014 -2.56556e-014
rhumerus -36.3626 12.9518 -98.7964
rradius 144.162
rwrist -59.7283
rhand 38.8219 -69.5456
rfingers 7.12502
rthumb 61.4116 -81.7533
lclavicle 1.05356e-014 -2.56556e-014
lhumerus -35.0431 -14.7468 96.89
lradius 144.863
lwrist 54.6738
lhand 72.0217 -14.9806
lfingers 7.12502
lthumb 72.7477 -89.0736
rfemur -54.9902 25.8324 5.30193
rtibia -3.96473
rfoot -75.9081 -55.3284
rtoes 49.507
lfemur -72.3406 16.2013 -23.6951
ltibia -3.79049
lfoot 31.5911 -43.361
ltoes 29.2266
1140
root 0.738956 16.9227 8.61873 55.4283 54.8761 -12.5245
lowerback 39.0486 3.20083 -2.73536
upperback 4.58048 2.45718 -3.51616
thorax -14.0069 1.21056 -3.53378
lowerneck -4.26607 -0.258656 -0.644062
upperneck -2.13518 -0.289199 1.90948
head 0.0531476 -0.125135 0.681471
rclavicle -1.94809e-014 -4.72735e-014
rhumerus -34.8182 12.8707 -101.015
rradius 143.8
rwrist -60.3137
rhand 36.9455 -70.5205
rfingers 7.12502
rthumb 59.8185 -84.4899
lclavicle -1.94809e-014 -4.72735e-014
lhumerus -33.3142 -17.4046 98.3742
lradius 143.568
lwrist 55.7837
lhand 74.4613 -15.5638
lfingers 7.12502
lthumb 71.4424 -263.956
rfemur -55.284 25.5655 5.24864
rtibia -3.93988
rfoot -75.7284 -55.3112
rtoes 49.4598
lfemur -72.74 16.0297 -23.8328
ltibia -3.70863
lfoot 31.6333 -43.3802
ltoes 29.3443
1141
root 0.731418 16.9149 8.62719 56.1472 54.8661 -12.1441
lowerback 39.2707 3.4341 -3.1293
upperback 4.78653 2.59833 -3.4239
thorax -13.8484 1.29465 -3.28773
lowerneck -3.88116 -0.384529 -0.43388
upperneck -1.18209 -0.48969 1.42262
head 0.280094 -0.231294 0.495566
rclavicle -1.40143e-014 1.60208e-013
rhumerus -34.5285 14.0992 -101.62
rradius 143.834
rwrist -61.2103
rhand 35.5809 -70.3808
rfingers 7.12502
rthumb 58.6421 -85.5117
lclavicle -1.40143e-014 1.60208e-013
lhumerus -31.891 -19.5877 98.1799
lradius 142.773
lwrist 57.3021
lhand 74.0135 -13.2329
lfingers 7.12502
lthumb 71.6988 -267.388
rfemur -55.6741 25.2421 5.03701
rtibia -3.93185
rfoot -75.5563 -55.236
rtoes 49.3677
lfemur -73.2054 15.9314 -24.0569
ltibia -3.68656
lfoot 32.4491 -42.7731
ltoes 30.9681
1142
root 0.717472 16.8979 8.59778 57.402 55.5485 -12.0847
lowerback 38.6408 3.12418 -2.39213
upperback 5.07517 2.58118 -3.31603
thorax -13.2771 1.2641 -3.5081
lowerneck -3.27665 -0.458717 -0.377881
upperneck -1.36681 -0.591972 1.06489
head 0.123627 -0.288067 0.376503
rclavicle -1.98785e-015 -6.03808e-015
rhumerus -34.2534 15.5528 -101.435
rradius 143.598
rwrist -61.7333
rhand 34.4445 -70.0582
rfingers 7.12502
rthumb 57.6522 -86.0876
lclavicle -1.98785e-015 -6.03808e-015
lhumerus -31.6684 -20.4471 97.5409
lradius 142.623
lwrist 58.4558
lhand 72.924 -10.0324
lfingers 7.12502
lthumb 72.292 -446.599
rfemur -57.0242 24.4336 5.14739
rtibia -3.75309
rfoot -75.3302 -55.0986
rtoes 49.4002
lfemur -74.9829 15.3342 -23.9239
ltibia -3.21263
lfoot 32.4336 -42.6563
ltoes 30.906
